<?xml version="1.0" encoding="UTF-8"?>
<svg xmlns="http://www.w3.org/2000/svg" viewBox="0 0 100 100">
  <g id="logo">
    <g>
      <path d="M58.99,35.5c0,5.18-1.68,9.97-4.54,13.86l-5.95-5.94c1.41-2.3,2.22-5.02,2.22-7.92,0-8.4-6.83-15.23-15.23-15.23s-15.23,6.83-15.23,15.23,6.83,15.23,15.23,15.23c.88,0,1.74-.07,2.57-.22l6.61,6.61c-2.82,1.21-5.93,1.87-9.19,1.87-12.96,0-23.5-10.54-23.5-23.5s10.54-23.5,23.5-23.5,23.5,10.54,23.5,23.5Z" style="fill: #343130;"/>
      <path d="M61.93,59.76h-6.16c-3.54,0-6.93-1.41-9.43-3.91l-15.54-15.54h11.7l19.44,19.45Z" style="fill: #fd5e0f;"/>
      <path d="M88,46.06c0,5.19-2.07,8.3-3.8,9.99-3.6,3.5-8.32,3.71-9.38,3.71h-9.95l-8.27-8.27h18.27c1.79,0,4.87-.71,4.87-5.44,0-5.39-5.45-6.29-6.85-6.44h-11.44v-8.27h11.07c1.13-.38,4.09-1.83,4.09-6.34,0-1.55-.35-2.66-1.02-3.31-1.02-.97-2.75-.98-2.77-.98h-13.37c-2.01-3.27-4.68-6.08-7.81-8.27h20.93c.94-.02,5.35.05,8.72,3.27,1.63,1.56,3.59,4.44,3.59,9.29,0,4.01-1.24,7.05-2.98,9.3,3.35,2.24,6.11,5.94,6.11,11.75Z" style="fill: #343130;"/>
    </g>
    <line x1="10" y1="65" x2="90" y2="65" style="fill: none; stroke: #343130; stroke-miterlimit: 10; stroke-width: 2px;"/>
  </g>
  <g id="manager-web">
    <g>
      <path d="M21.63,75.3v.62h7.38v1.86H11.51v-1.86h7.36v-.62h-5.78v-1.76h5.78v-.66h-6.52v-1.84h6.52v-1.22l2.76.08v1.14h6.56v1.84h-6.56v.66h5.8v1.76h-5.8ZM13.49,87.8v-9.34h13.56v7.1c0,.56-.07.99-.2,1.29-.13.3-.37.53-.71.68-.34.15-.84.26-1.49.31l-1.6.12-.68-2.04,1.28-.1c.29-.01.48-.07.57-.17.09-.1.13-.3.13-.59h-8.18v2.74h-2.68ZM24.35,80.92v-.72h-8.18v.72h8.18ZM16.17,82.66v.66h8.18v-.66h-8.18Z" style="fill: #343130;"/>
      <path d="M48.87,82.92l-2.2.24v4.68h-2.72v-4.4l-5.5.6-.2-2.42-.8.86c-.23-.35-.57-.82-1.04-1.42v6.76h-2.6v-6.38c-.6,1.24-1.31,2.42-2.14,3.54l-1.32-2.46c1.32-1.65,2.35-3.33,3.1-5.04h-2v-2.6h2.36v-1.54l-2,.22-.4-2.42c1.13-.12,2.31-.27,3.54-.46,1.23-.19,2.29-.39,3.18-.6l.46,2.46c-.77.19-1.5.33-2.18.42v1.92h2.02v2.6h-2.02v1.54l.62-.54c.25.24.6.59,1.03,1.06s.78.87,1.03,1.2l-.52.54,5.38-.58v-10.96l2.72.06v10.62l2-.22.2,2.72ZM40.03,75.76c.47.33,1,.75,1.6,1.26.6.51,1.11.97,1.54,1.4l-1.6,2.16c-.49-.49-1.03-1-1.6-1.52-.57-.52-1.09-.96-1.56-1.32l1.62-1.98ZM42.27,75.76c-1.08-1.09-2.14-2.03-3.18-2.82l1.62-1.92c.51.35,1.05.77,1.62,1.27s1.05.96,1.44,1.37l-1.5,2.1Z" style="fill: #343130;"/>
      <path d="M55.87,74.02v2.72h-1.1v11.12h-2.48v-11.12h-1.52v-2.72h1.52v-4.16l2.48.08v4.08h1.1ZM68.51,81.84v2.16h-2.28v1.52c0,.61-.07,1.07-.2,1.38-.13.31-.36.53-.67.66-.31.13-.78.23-1.41.28l-1.68.16-.76-2.26,1.12-.12c.45-.04.75-.12.9-.24s.22-.35.22-.7v-.68h-4.04c.55.41,1.03.82,1.46,1.22l-1.48,1.84c-.31-.31-.72-.69-1.25-1.14s-.95-.79-1.27-1.02l.76-.9h-2.36v-2.16h8.18v-.74l1.26.04v-.54h-1.9v.58h-2.38v-.58h-1.96v.72h-2.38v-7.28h4.34v-.72h-4.58v-2.04h4.58v-1.52l2.38.1v1.42h1.58l-.46-1.3,2.12-.3c.24.63.43,1.16.58,1.6h1.14v2.04h-4.96v.72h4.34v7.2h-1.22v.6h2.28ZM60.73,76.5v-.72h-1.96v.72h1.96ZM58.77,78.18v.7h1.96v-.7h-1.96ZM65.01,76.5v-.72h-1.9v.72h1.9ZM63.11,78.18v.7h1.9v-.7h-1.9Z" style="fill: #343130;"/>
      <path d="M87.07,84.06c-.76-.4-1.52-.86-2.28-1.38v5.04h-11.34v-5.12c-.56.43-1.29.93-2.2,1.52l-1.48-2.32c1.87-1.07,3.31-2.14,4.34-3.22h-3.52v-2.08h5.04c.09-.16.22-.41.38-.76h-4.16v-1.92h4.9l.2-.72h-5.78v-2.06h6.28c.04-.2.09-.63.16-1.28l2.78.1c-.07.55-.12.94-.16,1.18h6.82v2.06h-7.22c-.03.16-.08.4-.16.72h6.7v1.92h-7.32l-.32.76h8.88v2.08h-3.7c.97,1.07,2.5,2.07,4.58,3.02l-1.42,2.46ZM76.05,82.68h6.12v-1.1h-6.12v1.1ZM76.05,84.56v1.14h6.12v-1.14h-6.12ZM77.53,78.58c-.16.23-.43.57-.8,1.02h4.76c-.29-.36-.55-.7-.76-1.02h-3.2Z" style="fill: #343130;"/>
    </g>
  </g>
</svg>